<?xml version="1.0" standalone="no"?>
<!DOCTYPE svg PUBLIC "-//W3C//DTD SVG 1.1//EN"
  "http://www.w3.org/Graphics/SVG/1.1/DTD/svg11.dtd">
<svg xmlns="http://www.w3.org/2000/svg"
 width="256pt" height="256pt" viewBox="0 0 256 256"
 preserveAspectRatio="xMidYMid meet">
<metadata>
Public domain
</metadata>
<g transform="translate(0,256) scale(0.1,-0.1)"
fill="#000" stroke="none">
<path d="M772 2448 c-17 -17 -15 -103 5 -146 9 -20 17 -40 18 -44 2 -5 4 -10
5 -13 1 -3 3 -8 5 -12 1 -5 9 -24 17 -43 19 -43 58 -150 143 -390 36 -102 74
-208 84 -235 l18 -50 -23 -18 c-21 -16 -26 -16 -46 -3 -13 8 -105 44 -204 79
-100 36 -197 72 -215 81 -19 8 -113 45 -209 81 -150 57 -182 65 -230 63 l-55
-3 0 -505 0 -505 55 -3 c46 -2 78 6 203 53 81 30 155 60 165 65 19 11 115 47
324 120 75 27 145 53 157 59 18 10 25 7 49 -20 l29 -32 -48 -136 c-133 -380
-197 -551 -212 -570 -7 -8 -11 -16 -9 -18 1 -2 -5 -20 -14 -41 -22 -50 -30
-147 -14 -167 11 -13 79 -15 494 -15 362 0 485 3 494 12 13 13 17 100 5 112
-5 4 -8 11 -9 14 0 4 -6 18 -12 32 -6 14 -41 108 -77 210 -36 102 -84 232
-105 290 -22 58 -53 144 -68 191 l-29 86 29 32 c22 25 32 30 46 22 17 -9 98
-39 362 -133 63 -23 120 -45 125 -49 6 -4 78 -33 160 -64 127 -47 158 -55 205
-53 l55 3 0 505 0 505 -55 3 c-48 2 -80 -6 -230 -63 -96 -36 -190 -73 -209
-81 -18 -9 -65 -27 -105 -41 -164 -57 -292 -105 -314 -119 -20 -13 -25 -13
-45 3 l-24 17 43 121 c23 66 72 203 109 305 37 102 82 230 102 285 19 55 39
104 44 109 13 14 11 100 -3 114 -17 17 -969 17 -986 0z m828 -127 c0 -6 -11
-45 -24 -88 -13 -43 -45 -152 -72 -243 -27 -91 -52 -166 -56 -168 -4 -2 -4
-10 -1 -18 3 -8 0 -14 -7 -14 -6 0 -10 -8 -8 -17 1 -10 0 -22 -4 -28 -3 -5
-17 -48 -31 -95 l-26 -85 -105 0 -106 0 -11 30 c-7 17 -13 33 -14 38 -1 4 -4
10 -5 15 -1 4 -2 11 -1 16 1 4 -4 14 -10 22 -6 8 -8 14 -4 14 4 0 3 6 -3 13
-5 6 -29 77 -52 157 -23 80 -62 213 -86 295 -24 83 -44 153 -44 158 0 4 151 7
335 7 205 0 335 -4 335 -9z m-1235 -732 c77 -23 219 -65 315 -95 96 -29 195
-58 219 -64 24 -6 49 -17 55 -23 7 -7 11 -55 11 -119 l0 -108 -30 -11 c-16 -7
-32 -13 -35 -14 -3 -1 -12 -4 -20 -8 -32 -13 -652 -197 -662 -197 -5 0 -8 153
-8 340 0 187 3 340 7 340 4 0 71 -19 148 -41z m1955 -299 c0 -187 -3 -340 -7
-340 -19 0 -636 186 -678 205 -16 7 -39 15 -50 19 -18 5 -20 14 -19 115 1 59
4 113 7 118 4 6 28 16 54 23 44 11 317 92 568 168 55 17 106 31 113 31 9 1 12
-73 12 -339z m-939 171 c19 -13 49 -43 68 -68 28 -37 36 -56 39 -103 5 -72 -8
-114 -53 -163 -74 -81 -189 -101 -280 -48 -73 41 -108 97 -113 176 -5 73 11
114 65 170 52 53 86 66 169 63 55 -3 78 -8 105 -27z m14 -566 c13 -44 27 -93
31 -110 4 -16 11 -36 17 -42 5 -7 6 -13 2 -13 -4 0 -3 -6 3 -12 10 -14 152
-480 152 -500 0 -10 -670 -10 -670 0 0 7 13 52 99 342 27 91 54 185 61 210 7
25 17 51 22 58 6 6 7 12 3 12 -4 0 -2 6 4 14 6 8 11 18 10 22 -1 5 0 12 1 17
1 4 4 10 5 15 1 4 7 21 14 37 l11 30 106 0 105 0 24 -80z"/>
</g>
</svg>
