<?xml version="1.0" standalone="no"?>
<!DOCTYPE svg PUBLIC "-//W3C//DTD SVG 1.1//EN"
  "http://www.w3.org/Graphics/SVG/1.1/DTD/svg11.dtd">
<svg xmlns="http://www.w3.org/2000/svg"
 width="256pt" height="256pt" viewBox="0 0 256 256"
 preserveAspectRatio="xMidYMid meet">
<metadata>
Public domain
</metadata>
<g transform="translate(0.000000,256.000000) scale(0.100000,-0.100000)"
fill="#000000" stroke="none">
<path d="M814 2395 c-19 -19 -23 -31 -18 -48 7 -24 99 -246 257 -622 75 -180
73 -168 34 -198 l-34 -26 -229 206 c-126 113 -268 241 -316 285 -91 81 -130
97 -158 63 -24 -28 -24 -28 86 -395 l35 -115 -23 -17 c-13 -9 -97 -75 -188
-145 -183 -143 -200 -165 -159 -209 21 -23 30 -25 69 -20 25 3 196 19 380 36
184 17 354 33 377 36 l42 6 11 -42 c6 -24 8 -46 3 -50 -4 -5 -57 -39 -118 -76
-60 -37 -168 -103 -240 -147 -71 -44 -177 -108 -233 -143 -57 -35 -110 -68
-118 -75 -26 -21 -15 -74 19 -100 1 -1 109 -4 241 -8 l238 -6 79 -230 c90
-262 106 -285 162 -232 19 18 31 54 60 192 58 268 137 628 143 647 3 12 15 16
44 14 22 -1 41 -4 44 -7 3 -2 25 -99 50 -214 26 -116 51 -228 56 -250 6 -22
26 -114 45 -205 28 -125 41 -169 57 -182 55 -48 77 -16 157 223 38 114 74 216
80 228 11 20 19 21 214 22 243 0 276 5 296 40 27 49 28 49 -339 274 -47 29
-154 94 -238 146 -163 100 -156 91 -130 158 7 21 13 23 51 17 23 -3 167 -17
319 -31 152 -14 320 -30 373 -36 84 -9 100 -8 121 6 28 18 33 65 8 89 -8 9
-94 77 -190 152 -95 75 -174 142 -174 148 0 6 16 63 35 126 19 63 49 166 66
227 30 107 31 114 15 138 -11 17 -26 25 -44 25 -27 0 -34 -6 -525 -448 l-137
-123 -35 28 c-19 15 -33 33 -31 38 9 20 65 154 155 370 51 121 110 262 132
313 21 51 39 101 39 112 0 24 -34 60 -56 60 -17 0 -104 -59 -292 -198 l-114
-84 -36 25 c-21 13 -111 77 -200 141 -90 64 -170 116 -178 116 -8 0 -26 -11
-40 -25z m530 -953 c100 -57 127 -195 55 -277 -40 -45 -82 -65 -136 -65 -114
0 -198 106 -172 218 27 124 149 183 253 124z"/>
</g>
</svg>
